<?xml version="1.0" encoding="iso-8859-1"?>
<!-- Generator: Adobe Illustrator 19.0.0, SVG Export Plug-In . SVG Version: 6.00 Build 0)  -->
<svg version="1.1" id="Capa_1" xmlns="http://www.w3.org/2000/svg" xmlns:xlink="http://www.w3.org/1999/xlink" x="0px" y="0px"
	 viewBox="0 0 512 512" style="enable-background:new 0 0 512 512;" xml:space="preserve">
<rect x="120" y="35" style="fill:#C0C0C0;" width="30" height="90"/>
<rect x="362" y="35" style="fill:#A1A1A1;" width="30" height="90"/>
<polygon style="fill:#828282;" points="256,20 241,35 256,50 512,50 512,20 "/>
<rect y="20" style="fill:#A1A1A1;" width="256" height="30"/>
<polygon style="fill:#FF5808;" points="75,110 135,301 75,492 0,492 0,110 "/>
<polygon style="fill:#BF4206;" points="512,110 512,492 437,492 367,301 437,110 "/>
<polygon style="fill:#FF5808;" points="437,110 437,492 256,492 176,301 256,110 "/>
<rect x="75" y="110" style="fill:#FF9D05;" width="181" height="382"/>
<path style="fill:#FDEC9D;" d="M351.5,230v15L196,295l60-125h35.5C324.58,170,351.5,196.92,351.5,230z"/>
<path style="fill:#FFFFFF;" d="M256,170v135l-95.5-60v-15c0-33.08,26.92-60,60-60H256z"/>
<polygon style="fill:#FBB841;" points="351.5,245 351.5,245.87 329.86,432 256,432 216,338.5 256,245 "/>
<polygon style="fill:#FBDA4A;" points="256,245 256,432 182.14,432 160.5,245.87 160.5,245 "/>
<g>
</g>
<g>
</g>
<g>
</g>
<g>
</g>
<g>
</g>
<g>
</g>
<g>
</g>
<g>
</g>
<g>
</g>
<g>
</g>
<g>
</g>
<g>
</g>
<g>
</g>
<g>
</g>
<g>
</g>
</svg>
