<?xml version="1.0" encoding="iso-8859-1"?>
<!-- Generator: Adobe Illustrator 19.0.0, SVG Export Plug-In . SVG Version: 6.00 Build 0)  -->
<svg version="1.1" id="Capa_1" xmlns="http://www.w3.org/2000/svg" xmlns:xlink="http://www.w3.org/1999/xlink" x="0px" y="0px"
	 viewBox="0 0 512 512" style="enable-background:new 0 0 512 512;" xml:space="preserve">
<path style="fill:#FDEC9D;" d="M116,45l315,60c0,99.88-12.95,150.63-25.47,199.71C392.92,354.17,381,400.88,381,497v15H256L116,45z"
	/>
<path style="fill:#FFF7D4;" d="M256,35v477H131v-15c0-96.12-11.92-142.83-24.53-192.29C93.95,255.63,81,204.88,81,105L256,35z"/>
<path style="fill:#FF9D05;" d="M226,407l126.79,30c-0.88,13.78-1.47,28.7-1.69,45H256L226,407z"/>
<path style="fill:#FBB841;" d="M256,407v75h-95.1c-0.22-16.3-0.81-31.22-1.69-45L256,407z"/>
<path style="fill:#FF5808;" d="M166,75l235,30c0,96.12-11.92,142.83-24.53,192.29c-9.73,38.14-19.72,77.28-23.68,139.71H256L166,75z
	"/>
<path style="fill:#FF9D05;" d="M256,55v382h-96.79c-3.96-62.43-13.95-101.57-23.68-139.71C122.92,247.83,111,201.12,111,105L256,55z
	"/>
<g>
	<rect x="168.83" y="210" style="fill:#FFF7D4;" width="30" height="30"/>
	<rect x="198.83" y="150" style="fill:#FFF7D4;" width="30" height="30"/>
</g>
<g>
	<rect x="283.17" y="362" style="fill:#FBDA4A;" width="30" height="30"/>
	<path style="fill:#FBDA4A;" d="M431,75c0-41.35-33.64-75-75-75H256l-30,52.5l30,52.5h42.5v80c0,16.57,13.43,30,30,30
		s30-13.43,30-30v-80H431V75z"/>
</g>
<path style="fill:#FDEC9D;" d="M256,0v105H81V75c0-41.35,33.65-75,75-75H256z"/>
<g>
</g>
<g>
</g>
<g>
</g>
<g>
</g>
<g>
</g>
<g>
</g>
<g>
</g>
<g>
</g>
<g>
</g>
<g>
</g>
<g>
</g>
<g>
</g>
<g>
</g>
<g>
</g>
<g>
</g>
</svg>
