<?xml version="1.0" encoding="iso-8859-1"?>
<!-- Generator: Adobe Illustrator 19.0.0, SVG Export Plug-In . SVG Version: 6.00 Build 0)  -->
<svg version="1.1" id="Capa_1" xmlns="http://www.w3.org/2000/svg" xmlns:xlink="http://www.w3.org/1999/xlink" x="0px" y="0px"
	 viewBox="0 0 512 512" style="enable-background:new 0 0 512 512;" xml:space="preserve">
<path style="fill:#0AE2E8;" d="M411,165v95.29l-3.32,4.13c-6.65,8.24-10.52,17.41-11.2,26.53L379.92,512H256L146,105L411,165z"/>
<path style="fill:#7AF4F7;" d="M256,105v407H132.08l-16.56-221.05c-0.68-9.12-4.55-18.29-11.2-26.53l-3.32-4.13V165L256,105z"/>
<path style="fill:#AD5CFC;" d="M381,145v104.97c-8.46,11.92-13.43,25.21-14.44,38.74L352.08,482H256l-70-337H381z"/>
<path style="fill:#CA94FF;" d="M256,145v337h-96.08l-14.48-193.29c-1.01-13.53-5.98-26.82-14.44-38.74V145H256z"/>
<rect x="256" y="90" style="fill:#7AF4F7;" width="155" height="75"/>
<rect x="101" y="90" style="fill:#BFFFE9;" width="155" height="75"/>
<g>
	<rect x="183.47" y="210" style="fill:#FFFFFF;" width="30" height="30"/>
	<rect x="183.47" y="270" style="fill:#FFFFFF;" width="30" height="30"/>
</g>
<rect x="301" y="330" style="fill:#CA94FF;" width="30" height="30"/>
<polygon style="fill:#6024F8;" points="271,165 271,452 241,452 241,165 256,145 "/>
<polygon style="fill:#AD5CFC;" points="271,90 271,165 241,165 241,90 256,70 "/>
<path style="fill:#CA94FF;" d="M391,0v30h-90c-16.54,0-30,13.46-30,30v30h-30V60c0-33.08,26.92-60,60-60H391z"/>
<g>
</g>
<g>
</g>
<g>
</g>
<g>
</g>
<g>
</g>
<g>
</g>
<g>
</g>
<g>
</g>
<g>
</g>
<g>
</g>
<g>
</g>
<g>
</g>
<g>
</g>
<g>
</g>
<g>
</g>
</svg>
